<svg width="128" height="128" viewBox="0 0 128 128" fill="none" xmlns="http://www.w3.org/2000/svg">
<rect width="128" height="128" fill="white"/>
<circle cx="67.2391" cy="61.5375" r="36.5375" fill="url(#paint0_linear_140_82)"/>
<path d="M99.9036 97.3121L85.0081 91.6446L96.2773 81.7929L99.9036 97.3121Z" fill="#226DFF"/>
<path d="M67.9757 60.3957V39.8434L53.5375 63.2502H62.6351V84.3735L79.7988 60.3957H67.9757Z" fill="white" stroke="white"/>
<rect x="23.8508" y="74.0973" width="38.8211" height="6.85078" fill="white"/>
<rect x="23.8508" y="60.3957" width="38.8211" height="6.85078" fill="white"/>
<rect x="19.2836" y="46.6942" width="45.6719" height="6.85078" fill="white"/>
<path d="M26.7053 67.2465L61.5301 67.2465V74.0972H22.709L26.7053 67.2465Z" fill="url(#paint1_linear_140_82)"/>
<path d="M20.9963 53.5449L55.8211 53.5449L51.2539 60.3957L17 60.3957L20.9963 53.5449Z" fill="url(#paint2_linear_140_82)"/>
<defs>
<linearGradient id="paint0_linear_140_82" x1="103.777" y1="98.075" x2="7.86563" y2="25" gradientUnits="userSpaceOnUse">
<stop offset="0.185" stop-color="#226DFF"/>
<stop offset="1" stop-color="#102B4D"/>
</linearGradient>
<linearGradient id="paint1_linear_140_82" x1="-8.69043" y1="71.2427" x2="61.5301" y2="70.6719" gradientUnits="userSpaceOnUse">
<stop stop-color="#102B4D"/>
<stop offset="1" stop-color="#1D5BCF"/>
</linearGradient>
<linearGradient id="paint2_linear_140_82" x1="1.01484" y1="56.9703" x2="55.8211" y2="56.9703" gradientUnits="userSpaceOnUse">
<stop stop-color="#102B4D"/>
<stop offset="1" stop-color="#1B51B2"/>
</linearGradient>
</defs>
</svg>
